# xmcd CD database file
#
# Track frame offsets:
#	150
#	18307
#	42090
#	62012
#	79695
#	103427
#	126900
#	151192
#	165507
#	186657
#	205370
#	223595
#
# Disc length: 3105 seconds
#
# Revision: 0
# Processed by: cddbd v1.5.2PL0 Copyright (c) Steve Scherf et al.
# Submitted via: CDex 1.51
#
DISCID=a70c1f0c
DTITLE=The Tony Schilder Trio - The Tony Schilder Trio
DYEAR=1995
DGENRE=Jazz
TTITLE0=Big Red
TTITLE1=Ndi Thanda Ilanga
TTITLE2=Montreal
TTITLE3=Lullaby
TTITLE4=Blues for BB King
TTITLE5=Giver Her Back To me
TTITLE6=Mitchel's Plain Samba
TTITLE7=Magic
TTITLE8=Give me Lovin'
TTITLE9=JB's Back In Town
TTITLE10=Obrigado Bazil
TTITLE11=Livitation
EXTD=YEAR: 1995
EXTT0=
EXTT1=
EXTT2=
EXTT3=
EXTT4=
EXTT5=
EXTT6=
EXTT7=
EXTT8=
EXTT9=
EXTT10=
EXTT11=
PLAYORDER=
